HIERARCHY
ROOT root
{
	OFFSET	0	13.1	24.9
	CHANNELS 6  Xposition Yposition Zposition Xrotation Yrotation Zrotation
	JOINT spine_1
	{
		OFFSET	0	9.99999	0
		CHANNELS 3  Xrotation Yrotation Zrotation
		JOINT spine_2
		{
			OFFSET	0	112	-10
			CHANNELS 3  Xrotation Yrotation Zrotation
			JOINT spine_3
			{
				OFFSET	0	206.5	19.3
				CHANNELS 3  Xrotation Yrotation Zrotation
				JOINT spine_4
				{
					OFFSET	0	110.4	14.6
					CHANNELS 3  Xrotation Yrotation Zrotation
					JOINT neck_1
					{
						OFFSET	0	71.8	-50.3
						CHANNELS 3  Xrotation Yrotation Zrotation
						JOINT neck_2
						{
							OFFSET	0	86.2	-25.8
							CHANNELS 3  Xrotation Yrotation Zrotation
							JOINT head_ee
							{
								OFFSET	0	179.8	-8.7
								CHANNELS 3  Xrotation Yrotation Zrotation
								End Site
								{
									OFFSET	1	0	0
								}
							}
						}
					}
					JOINT left_clavicle
					{
						OFFSET	-43.2	22.4	-70.8
						CHANNELS 3  Xrotation Yrotation Zrotation
						JOINT left_shoulder
						{
							OFFSET	-93.9	-5.79999	48.7
							CHANNELS 3  Xrotation Yrotation Zrotation
							JOINT left_elbow
							{
								OFFSET	-291.4	-30.8	15.2
								CHANNELS 3  Xrotation Yrotation Zrotation
								JOINT left_lowarm_twist
								{
									OFFSET	-110.7	-3.89999	13.6
									CHANNELS 3  Xrotation Yrotation Zrotation
									JOINT left_hand
									{
										OFFSET	-110.7	-3.89999	13.6
										CHANNELS 3  Xrotation Yrotation Zrotation
										JOINT left_ee
										{
											OFFSET	-80.8	-5.10001	12.1
											CHANNELS 3  Xrotation Yrotation Zrotation
											End Site
											{
												OFFSET	1	0	0
											}
										}
									}
								}
							}
						}
					}
					JOINT right_clavicle
					{
						OFFSET	43.2	22.4	-70.8
						CHANNELS 3  Xrotation Yrotation Zrotation
						JOINT right_shoulder
						{
							OFFSET	93.9	-5.79999	48.7
							CHANNELS 3  Xrotation Yrotation Zrotation
							JOINT right_elbow
							{
								OFFSET	291.4	-30.8	15.2
								CHANNELS 3  Xrotation Yrotation Zrotation
								JOINT right_lowarm_twist
								{
									OFFSET	110.7	-3.89999	13.6
									CHANNELS 3  Xrotation Yrotation Zrotation
									JOINT right_hand
									{
										OFFSET	110.7	-3.89999	13.6
										CHANNELS 3  Xrotation Yrotation Zrotation
										JOINT right_ee
										{
											OFFSET	80.8	-5.10001	12.1
											CHANNELS 3  Xrotation Yrotation Zrotation
											End Site
											{
												OFFSET	1	0	0
											}
										}
									}
								}
							}
						}
					}
				}
			}
		}
	}
	JOINT left_hip
	{
		OFFSET	-82.8	-127.5	0.300001
		CHANNELS 3  Xrotation Yrotation Zrotation
		JOINT left_knee
		{
			OFFSET	-28.2	-396.7	2.2
			CHANNELS 3  Xrotation Yrotation Zrotation
			JOINT left_ankle
			{
				OFFSET	-11.7	-411.3	35.4
				CHANNELS 3  Xrotation Yrotation Zrotation
				JOINT left_toes
				{
					OFFSET	0	-60	-88.6
					CHANNELS 3  Xrotation Yrotation Zrotation
					JOINT left_foot_ee
					{
						OFFSET	-22.5	-16.5	-42.2
						CHANNELS 3  Xrotation Yrotation Zrotation
						End Site
						{
							OFFSET	1	0	0
						}
					}
				}
			}
		}
	}
	JOINT right_hip
	{
		OFFSET	82.8	-127.5	0.300001
		CHANNELS 3  Xrotation Yrotation Zrotation
		JOINT right_knee
		{
			OFFSET	28.2	-396.7	2.2
			CHANNELS 3  Xrotation Yrotation Zrotation
			JOINT right_ankle
			{
				OFFSET	11.7	-411.3	35.4
				CHANNELS 3  Xrotation Yrotation Zrotation
				JOINT right_toes
				{
					OFFSET	0	-60	-88.6
					CHANNELS 3  Xrotation Yrotation Zrotation
					JOINT right_foot_ee
					{
						OFFSET	22.5	-16.5	-42.2
						CHANNELS 3  Xrotation Yrotation Zrotation
						End Site
						{
							OFFSET	1	0	0
						}
					}
				}
			}
		}
	}
}
MOTION
Frames: 12
Frame Time: 0.02
3558.59 708.886 -1470.27 24.4917 79.8686 -24.3166 -0.896673 0.452753 0.977681 -0.896226 0.389627 1.00451 -0.888839 0.153316 1.06645 -0.890283 0.319809 1.02886 1.77586 5.12833 -5.57696 2.09492 13.6906 -5.73413 -0.0 0.0 -0.0 -8.12723 20.4923 -9.64405 -15.877 -28.6522 71.0015 1.27002 -32.1738 0.366271 30.0079 0.0661115 -3.78923 2.64196 2.82562 19.0535 -0.0 0.0 -0.0 5.1157 7.85288 -9.55115 9.08795 20.6382 -73.3829 1.41106 34.9514 -0.444267 9.10838 -0.230764 1.1394 6.12342 1.41698 -45.0455 0.0 0.0 0.0 12.0524 3.69401 -5.36433 -25.9031 0.179061 3.93731 32.3559 14.2003 -4.17837 -1.72074 0.0 0.0 -0.0 0.0 -0.0 -18.9852 10.5847 -6.07886 2.54741 0.113253 0.374447 35.1644 -24.8785 4.67591 -11.1691 0.0 0.0 0.0 0.0 0.0 
3553.25 709.812 -1470.34 24.2423 79.5813 -24.0766 -0.974921 0.501769 0.99512 -0.974477 0.437433 1.02503 -0.966045 0.193801 1.09748 -0.967541 0.364685 1.0531 0.19339 5.81879 -5.54307 0.504453 14.8898 -5.41728 -0.0 0.0 -0.0 -8.25623 20.3753 -9.88444 -16.1907 -28.1576 71.7371 1.09794 -28.5403 0.27926 30.7174 0.0436254 -3.87706 2.41549 1.77314 17.0621 -0.0 0.0 -0.0 5.559 9.55943 -10.3794 9.29345 21.5278 -72.2851 1.55021 37.5191 -0.526544 9.84162 -0.241413 1.23246 6.09259 0.716261 -45.1143 0.0 0.0 0.0 14.8353 1.68297 -5.28591 -24.951 0.204116 3.79334 27.8205 16.8328 -3.71204 -3.26766 0.0 0.0 -0.0 0.0 -0.0 -19.9547 8.62914 -6.37022 4.18907 0.195034 0.613 36.3232 -25.8988 4.82805 -11.2324 0.0 0.0 0.0 0.0 0.0 
3555.62 710.253 -1470.14 23.6774 80.584 -23.5563 -0.967045 0.415043 0.949119 -0.966614 0.35381 0.973603 -0.960076 0.124096 1.02843 -0.961439 0.284953 0.995933 -1.27895 6.826 -6.55051 -0.900506 17.5034 -6.1749 -0.0 0.0 -0.0 -7.79106 20.7633 -9.03546 -16.8644 -27.5042 71.046 0.950524 -25.2135 0.21259 30.8749 0.0384874 -3.89652 1.90115 2.40119 13.7557 -0.0 0.0 -0.0 5.78873 10.1041 -10.831 10.6084 22.44 -71.2925 1.67937 39.7541 -0.607201 10.9018 -0.254701 1.36722 6.28162 1.13215 -46.7313 0.0 0.0 0.0 15.4469 0.391409 -4.66227 -20.8062 0.285184 3.16262 22.8615 14.5783 -3.10707 -5.46625 0.0 0.0 -0.0 0.0 -0.0 -19.6996 8.04879 -6.39126 4.49174 0.210858 0.656727 35.6824 -26.4124 4.77676 -10.9186 0.0 0.0 0.0 0.0 0.0 
3550.43 711.694 -1466.77 22.0619 80.242 -22.0288 -0.899133 0.493994 0.956047 -0.898728 0.43216 0.98554 -0.890743 0.199001 1.05756 -0.89212 0.363517 1.01287 -2.19748 7.10556 -7.944 -1.74319 19.0972 -7.47244 -0.0 0.0 -0.0 -7.38933 21.248 -8.26547 -17.1155 -26.9537 70.8431 0.826276 -22.2598 0.162559 31.2795 0.0250381 -3.94645 1.57298 2.51022 11.5644 -0.0 0.0 -0.0 6.07807 10.9208 -11.3961 12.0547 23.2165 -70.4759 1.77773 41.3645 -0.671166 11.5858 -0.26195 1.45429 6.33518 1.37693 -47.1285 0.0 0.0 0.0 17.2772 -1.14773 -4.52717 -18.241 0.312426 2.77001 18.2336 12.1565 -2.51849 -6.91345 0.0 0.0 -0.0 0.0 -0.0 -19.6511 7.08952 -5.81712 4.20096 0.195651 0.614718 36.3593 -27.0994 4.87069 -10.5458 0.0 0.0 0.0 0.0 0.0 
3540.67 710.76 -1464.69 25.9639 80.4224 -26.1437 -0.705946 0.511899 0.963398 -0.705542 0.449561 0.994015 -0.69721 0.217661 1.06901 -0.6986 0.38375 1.02123 -2.58831 7.93684 -8.20487 -2.09464 20.7932 -7.57097 -0.0 0.0 -0.0 -7.25062 21.6373 -7.93045 -17.8125 -26.4712 70.4448 0.694218 -18.9779 0.116036 31.3852 0.0214685 -3.95947 1.19923 4.00249 9.63173 -0.0 0.0 -0.0 6.39555 11.6017 -12.0316 11.8979 23.8026 -68.9009 1.84367 42.4014 -0.715191 12.0629 -0.266391 1.51507 6.40076 1.66583 -47.6232 0.0 0.0 0.0 18.0669 -2.14083 -4.1554 -16.4386 0.321041 2.49361 14.9506 10.4481 -2.08885 -7.93823 0.0 0.0 -0.0 0.0 -0.0 -20.6648 6.37283 -5.31727 3.47096 0.158418 0.508933 36.6991 -24.8012 4.83364 -9.41483 0.0 0.0 0.0 0.0 0.0 
3531.77 707.604 -1465.47 26.5091 80.7946 -26.8105 -0.76248 0.539113 0.990371 -0.762059 0.475004 1.02266 -0.753004 0.235039 1.10282 -0.754472 0.40625 1.05187 -3.40221 8.71165 -8.44958 -2.9032 22.3701 -7.55286 -0.0 0.0 -0.0 -7.01027 21.1969 -7.71516 -18.1598 -26.3079 70.1375 0.613634 -16.9081 0.0912062 31.6591 0.0121026 -3.9932 0.931747 4.93707 8.21497 -0.0 0.0 -0.0 6.70805 12.0421 -12.6728 13.1865 24.4286 -67.7911 1.89936 43.251 -0.753045 12.5228 -0.270192 1.57369 6.41437 2.04171 -47.5491 0.0 0.0 0.0 19.133 -2.913 -3.98938 -15.125 0.321841 2.29206 14.5538 9.02095 -2.03466 -8.68966 0.0 0.0 -0.0 0.0 -0.0 -21.2496 5.81534 -4.7535 2.18539 0.0961429 0.321539 37.0469 -23.4629 4.83097 -8.62137 0.0 0.0 0.0 0.0 0.0 
3521.16 704.23 -1466.34 29.0472 81.2476 -29.4873 -0.695259 0.519022 0.982831 -0.694837 0.455433 1.01386 -0.686228 0.21919 1.08962 -0.687674 0.388516 1.04134 -3.49013 9.09234 -8.73776 -2.95681 23.2803 -7.78696 -0.0 0.0 -0.0 -6.99179 21.4868 -7.59519 -18.6012 -26.1855 69.824 0.542015 -15.0295 0.0715003 31.7657 0.00841458 -4.00631 0.747286 5.78197 7.32641 -0.0 0.0 -0.0 7.35454 12.4221 -14.0355 14.1126 24.7697 -66.4903 1.95462 44.0714 -0.7912 12.847 -0.272588 1.61503 6.44522 2.22379 -47.7551 0.0 0.0 0.0 19.7024 -3.41529 -3.8804 -13.4012 0.315881 2.02766 13.2351 8.17803 -1.85931 -9.04831 0.0 0.0 -0.0 0.0 -0.0 -21.7292 5.41696 -4.50923 1.0164 0.0431864 0.14999 36.9413 -22.4853 4.79445 -8.131 0.0 0.0 0.0 0.0 0.0 
3519.35 706.882 -1466.17 20.197 81.8212 -20.6498 -0.951563 0.642369 1.29797 -0.950799 0.558481 1.33621 -0.936757 0.241965 1.42785 -0.939302 0.46441 1.37174 -5.10521 10.6726 -8.2909 -4.67389 25.8044 -6.67644 -0.0 0.0 -0.0 -6.8912 21.4936 -7.44393 -17.8004 -25.8332 69.9836 0.494871 -13.7743 0.0597739 32.7069 -0.025213 -4.12181 0.627959 5.38447 6.3809 -0.0 0.0 -0.0 7.74216 12.6991 -14.8556 14.7838 25.6332 -64.8862 2.13418 46.5871 -0.918922 13.9291 -0.278895 1.7531 6.59421 4.21684 -48.0793 0.0 0.0 0.0 21.2601 -3.96702 -4.28507 -8.4928 0.2554 1.27717 11.9048 7.5722 -1.68072 -11.1951 0.0 0.0 -0.0 0.0 -0.0 -19.7295 5.13743 -4.67671 0.329926 0.0137263 0.0487689 36.9684 -20.7648 4.7556 -7.75149 0.0 0.0 0.0 0.0 0.0 
3518.42 706.798 -1469.03 13.5905 80.7086 -13.8431 -1.08315 0.698913 1.47866 -1.08214 0.603417 1.52013 -1.06478 0.240569 1.6177 -1.06809 0.493005 1.55943 -5.54679 11.1952 -10.667 -4.94898 28.5039 -8.95677 -0.0 0.0 -0.0 -6.52683 21.2415 -6.98201 -17.3256 -25.4551 70.1875 0.432573 -12.0949 0.0458276 34.4668 -0.093168 -4.33625 0.463266 5.60033 5.38192 -0.0 0.0 -0.0 8.5623 12.8359 -16.6236 16.2178 26.7253 -64.8159 2.2257 47.7858 -0.986065 14.8003 -0.282076 1.86433 6.45905 6.64074 -45.2708 0.0 0.0 0.0 24.2911 -4.95129 -5.74286 -4.47362 0.158168 0.668174 6.09662 7.43719 -0.877679 -13.6834 0.0 0.0 -0.0 0.0 -0.0 -18.3528 4.88394 -4.75855 -0.245322 -0.010024 -0.0363126 34.541 -19.4168 4.48193 -7.63186 0.0 0.0 0.0 0.0 0.0 
3506.05 706.276 -1467.93 7.93339 80.5698 -8.22305 -1.21266 0.849643 1.60666 -1.21153 0.7457 1.65746 -1.18825 0.343984 1.7846 -1.19216 0.621471 1.70791 -6.91214 12.3 -9.89857 -6.51255 29.9317 -7.53387 -0.0 0.0 -0.0 -6.40388 21.569 -6.70143 -16.8087 -25.1594 70.2893 0.389524 -10.9217 0.0372384 34.9834 -0.114363 -4.39879 0.219423 6.38264 4.09789 -0.0 0.0 -0.0 8.78726 12.7505 -17.1162 16.6822 27.0582 -63.5799 2.38856 49.7897 -1.1086 15.1516 -0.282881 1.90919 6.72328 7.68221 -47.1602 0.0 0.0 0.0 25.9965 -5.36236 -6.23946 -2.36315 0.0900613 0.351456 4.81719 7.02491 -0.696217 -14.8872 0.0 0.0 -0.0 0.0 -0.0 -17.5807 4.73262 -4.63338 -0.693123 -0.0279192 -0.102703 34.4652 -19.4421 4.4746 -7.24253 0.0 0.0 0.0 0.0 0.0 
3497.59 707.213 -1465.32 8.42189 80.7391 -8.60377 -1.1851 0.639056 1.75075 -1.18355 0.526374 1.78785 -1.16532 0.101157 1.86096 -1.16994 0.393742 1.82165 -8.71321 12.51 -9.74877 -8.54194 30.1443 -6.773 -0.0 0.0 -0.0 -6.33439 21.8772 -6.50722 -16.8887 -24.989 70.3258 0.362401 -10.1777 0.0322724 36.4054 -0.17562 -4.56995 0.216593 5.93605 3.89764 -0.0 0.0 -0.0 8.89298 12.6171 -17.3514 17.583 27.8536 -63.0616 2.28829 48.575 -1.03271 14.6274 -0.281579 1.84224 6.52911 7.52668 -45.3843 0.0 0.0 0.0 25.8771 -5.99298 -6.16332 -1.86233 0.0721884 0.276675 -0.0332466 6.48245 0.00486856 -16.5242 0.0 0.0 -0.0 0.0 -0.0 -16.5657 4.46926 -4.79247 -4.41786 -0.156519 -0.659775 35.8639 -23.4519 4.70988 -6.02606 0.0 0.0 0.0 0.0 0.0 
3483.92 703.57 -1464.0 4.18569 80.4006 -4.15204 -1.16452 0.574399 1.73493 -1.16296 0.462855 1.76795 -1.14697 0.0444687 1.82697 -1.15147 0.3324 1.79704 -9.48583 13.1903 -11.8038 -9.29824 32.7638 -8.42845 -0.0 0.0 -0.0 -6.21879 22.5322 -6.14467 -17.7337 -25.0952 70.1592 0.320826 -9.03056 0.0253357 36.0332 -0.159176 -4.5253 0.0652124 7.59133 3.58419 -0.0 0.0 -0.0 9.2731 12.7134 -18.178 17.6126 27.7971 -62.3364 2.49758 51.0447 -1.19263 15.752 -0.283618 1.98587 6.71088 9.78175 -45.6359 0.0 0.0 0.0 27.6474 -5.72839 -7.2614 -3.25772 0.120355 0.485403 0.0643041 5.81854 -0.00941867 -17.1598 0.0 0.0 -0.0 0.0 -0.0 -16.2108 4.45368 -4.68626 -5.27545 -0.180976 -0.789113 33.2463 -18.5153 4.33093 -6.94322 0.0 0.0 0.0 0.0 0.0 
